# xmcd CD database file
#
# Track frame offsets:
#	150
#	27345
#	51108
#	74349
#	88470
#	117924
#	137404
#	152383
#	182928
#	219591
#	267020
#
# Disc length: 3868 seconds
#
# Revision: 2
# Processed by: cddbd v1.5.2PL0 Copyright (c) Steve Scherf et al.
# Submitted via: CDex 1.51
#
DISCID=9a0f1a0b
DTITLE=Larry Martin Band - Here's to life
DYEAR=2005
DGENRE=Jazz
TTITLE0=Sweet Love
TTITLE1=For Once In My Life
TTITLE2=You've Changed
TTITLE3=Why don't you do right
TTITLE4=Still Alive
TTITLE5=How high the moon/Ornithology
TTITLE6=Fool that I am
TTITLE7=Nada que ver
TTITLE8=Take Five
TTITLE9=Here's to Life
TTITLE10=I wanna be around
EXTD=YEAR: 2005
EXTT0=
EXTT1=
EXTT2=
EXTT3=
EXTT4=
EXTT5=
EXTT6=
EXTT7=
EXTT8=
EXTT9=
EXTT10=
PLAYORDER=
